<?xml version="1.0" encoding="UTF-8"?>
<svg id="Layer_1" data-name="Layer 1" xmlns="http://www.w3.org/2000/svg" viewBox="0 0 178.75 51.81">
  <polygon points="7.6 11.85 11.9 11.85 9.77 9.37 7.6 11.85"/>
  <polygon points="11.9 11.85 16.2 11.85 14.04 9.37 11.9 11.85"/>
  <polygon points="20.48 11.85 18.34 9.37 16.2 11.85 20.48 11.85"/>
  <polygon points="22.64 9.37 20.48 11.85 24.78 11.85 22.64 9.37"/>
  <polygon points="20.48 6.88 18.34 9.37 22.64 9.37 20.48 6.88"/>
  <polygon points="14.04 9.37 18.34 9.37 18.34 9.37 16.2 6.88 14.04 9.37"/>
  <polygon points="11.9 6.88 16.2 6.88 14.04 4.4 11.9 6.88"/>
  <polygon points="16.2 6.88 20.48 6.88 18.34 4.4 16.2 6.88"/>
  <polygon points="9.77 9.37 14.04 9.37 11.9 6.88 9.77 9.37"/>
  <rect x="7.6" y="1.42" width="17.17" height="2.06"/>
  <polygon points="24.78 39.98 20.48 39.98 22.64 42.47 24.78 39.98"/>
  <polygon points="18.34 42.47 20.48 39.98 16.2 39.98 18.34 42.47"/>
  <polygon points="14.04 42.47 16.2 39.98 11.9 39.98 14.04 42.47"/>
  <polygon points="9.77 42.47 11.9 39.98 7.6 39.98 9.77 42.47"/>
  <polygon points="11.9 44.95 14.04 42.47 9.77 42.47 11.9 44.95"/>
  <polygon points="16.2 44.95 18.34 42.47 14.04 42.47 16.2 44.95"/>
  <polygon points="18.34 47.44 20.48 44.95 16.2 44.95 18.34 47.44"/>
  <polygon points="14.04 47.44 16.2 44.95 11.9 44.95 14.04 47.44"/>
  <polygon points="22.64 42.47 18.34 42.47 20.48 44.95 22.64 42.47"/>
  <rect x="7.6" y="48.36" width="17.17" height="2.06"/>
  <rect x="30.29" y="0" width="2.06" height="51.81"/>
  <rect y="0" width="2.06" height="51.81"/>
  <path d="M24.06,28.11c-1.24-.22-3.33-.6-6.81,1.39l-1.04.6-1.04-.6c-3.48-2.01-5.57-1.62-6.81-1.39-.05,0-.12.03-.17.03l-1.19.2,1.22.07c2.21.15,3.9.47,6.09,1.74l.92.52-3.6,2.09-.42-.5c-.02-.05-.05-.1-.05-.15s.02-.1.07-.15c.17-.15.27-.35.3-.57.02-.22-.05-.45-.2-.62-.3-.35-.84-.4-1.19-.1-.17.15-.27.35-.3.57-.02.22.05.45.2.62l1.02,1.22-.99.57c-.3.17-.65.22-.97.12l-.1-.03c-.45-.12-.92.12-1.04.55-.08.22-.05.47.08.67.12.2.3.35.52.42.07.03.15.03.22.03.15,0,.3-.05.42-.12l2.51-1.44.37.45s.05.1.05.15-.02.1-.07.15c-.17.15-.27.35-.3.57-.03.22.05.45.2.62.17.2.4.3.65.3.2,0,.4-.07.55-.2.17-.15.27-.35.3-.57.02-.22-.05-.45-.2-.62l-.97-1.17,3.95-2.29,3.95,2.29-.97,1.17c-.15.17-.22.4-.2.62.02.22.12.42.3.57.15.12.35.2.55.2.25,0,.47-.1.65-.3.15-.17.22-.4.2-.62-.02-.22-.12-.42-.3-.57-.05-.02-.07-.07-.07-.15,0-.05,0-.1.05-.15l.37-.45,2.51,1.44c.12.07.27.12.42.12.08,0,.15,0,.22-.03.22-.05.42-.2.52-.42.12-.2.12-.45.07-.67-.15-.42-.6-.67-1.04-.55l-.1.03c-.32.1-.67.05-.97-.12l-.99-.57,1.02-1.22c.15-.17.22-.4.2-.62-.02-.22-.12-.42-.3-.57-.37-.3-.9-.25-1.19.1-.15.17-.22.4-.2.62.02.22.12.42.3.57.05.03.08.07.08.15,0,.05,0,.1-.05.15l-.42.5-3.6-2.09.92-.52c2.19-1.27,3.88-1.59,6.09-1.74l1.22-.07-1.19-.2c-.08,0-.12-.03-.17-.03Z"/>
  <path d="M22.42,20.95s-.32-4.05-4.6-3.58c0,0,1.17-1.04,3.4-.1,0,0-1.54-2.14-4.32-1.09,0,0,.03-1.12-.7-1.74-.75.62-.69,1.74-.69,1.74-2.76-1.04-4.32,1.09-4.32,1.09,2.24-.94,3.4.1,3.4.1-4.27-.47-4.6,3.58-4.6,3.58,2.31-2.91,4.2-1.79,4.2-1.79-1.22.2-2.04.6-2.58,1.09-.37.35-.62.75-.79,1.17-.5,1.39.12,2.86.12,2.86.85-3.16,2.68-3.28,3.06-3.28h.07c-1.67,1.22-.6,4.2-.6,4.2.65-2.86,1.74-3.4,2.04-3.5.02.25.15,4.05-.05,6.44-.92-.27-2.31-.22-2.36-.22,1.59.45,3.11,1.44,3.11,1.44,0,0,1.52-.99,3.11-1.44-.05,0-1.52-.03-2.44.25-.2-2.54-.05-6.49-.05-6.49,0,0,1.37.17,2.11,3.53,0,0,1.07-2.96-.6-4.2h.07c.35,0,2.21.1,3.06,3.28,0,0,.5-1.19.25-2.43-.2-.75-.6-1.44-1.34-1.94-.5-.32-1.17-.6-2.04-.74-.05,0-.07-.03-.12-.03-.02.03,1.86-1.12,4.2,1.81Z"/>
  <polygon points="28.5 4.47 28.5 .17 26.02 2.34 28.5 4.47"/>
  <polygon points="28.5 8.75 28.5 4.47 26.02 6.61 28.5 8.75"/>
  <polygon points="28.5 13.05 28.5 8.75 26.02 10.91 28.5 13.05"/>
  <polygon points="28.5 17.35 28.5 13.05 26.02 15.18 28.5 17.35"/>
  <polygon points="28.5 21.62 28.5 17.35 26.02 19.48 28.5 21.62"/>
  <polygon points="28.5 25.92 28.5 21.62 26.02 23.78 28.5 25.92"/>
  <polygon points="28.5 30.22 28.5 25.92 26.02 28.06 28.5 30.22"/>
  <polygon points="28.5 34.49 28.5 30.22 26.02 32.36 28.5 34.49"/>
  <polygon points="28.5 38.79 28.5 34.49 26.02 36.65 28.5 38.79"/>
  <polygon points="28.5 43.09 28.5 38.79 26.02 40.93 28.5 43.09"/>
  <polygon points="28.5 47.37 28.5 43.09 26.02 45.23 28.5 47.37"/>
  <polygon points="28.5 51.66 28.5 47.37 26.02 49.5 28.5 51.66"/>
  <polygon points="3.88 .17 3.88 4.47 6.36 2.34 3.88 .17"/>
  <polygon points="3.88 8.75 6.36 6.61 3.88 4.47 3.88 8.75"/>
  <polygon points="3.88 13.05 6.36 10.91 3.88 8.75 3.88 13.05"/>
  <polygon points="3.88 17.35 6.36 15.18 3.88 13.05 3.88 17.35"/>
  <polygon points="3.88 21.62 6.36 19.48 3.88 17.35 3.88 21.62"/>
  <polygon points="3.88 25.92 6.36 23.78 3.88 21.62 3.88 25.92"/>
  <polygon points="3.88 30.22 6.36 28.06 3.88 25.92 3.88 30.22"/>
  <polygon points="3.88 34.49 6.36 32.36 3.88 30.22 3.88 34.49"/>
  <polygon points="3.88 38.79 6.36 36.65 3.88 34.49 3.88 38.79"/>
  <polygon points="3.88 43.09 6.36 40.93 3.88 38.79 3.88 43.09"/>
  <polygon points="3.88 47.36 6.36 45.23 3.88 43.09 3.88 47.36"/>
  <polygon points="3.88 51.66 6.36 49.5 3.88 47.37 3.88 51.66"/>
  <path d="M46.2,29.9h-4.97v10.98h2.11v-3.98h2.86c2.73,0,3.88-1.64,3.88-3.58,0-1.76-1.02-3.43-3.88-3.43ZM45.97,35.04h-2.63v-3.16h2.63c1.24,0,1.94.5,1.94,1.59s-.72,1.57-1.94,1.57Z"/>
  <path d="M51.04,33.4h-.02v7.45h2.16v-5.69c.2-.02,1.07-.1,1.39-.1h1.17v-1.96h-1.52c-.7,0-2.04.05-3.18.3Z"/>
  <path d="M60.36,32.8c-2.46,0-4.05,1.71-4.05,4.12v.03c0,2.46,1.69,4.15,4.3,4.15,1.52,0,2.58-.47,3.38-.97l-.94-1.66c-.57.4-1.39.74-2.34.74-1.17,0-1.94-.77-2.16-1.76h5.81v-.2c0-2.76-1.52-4.45-4-4.45ZM58.55,36.11c.2-.9.87-1.57,1.76-1.57,1.04,0,1.67.67,1.84,1.57h-3.6Z"/>
  <path d="M73.83,32.8c-1.12,0-2.04.32-2.58,1.04-.47-.77-1.34-1.04-2.34-1.04-.7,0-2.09.15-3.4.4h-.02v7.68h2.16v-6.04c.45-.07.82-.12,1.17-.12.84,0,1.39.35,1.39,1.34v4.82h2.14v-4.82c0-.82.25-1.34,1.29-1.34s1.29.52,1.29,1.34v4.82h2.16v-5.07c0-2.21-1.24-3.01-3.25-3.01Z"/>
  <rect x="78.4" y="33.1" width="2.16" height="7.78"/>
  <path d="M80.54,31.14c0-.6-.42-.94-1.07-.94s-1.07.37-1.07.94c0,.67.5.97,1.07.94.6,0,1.07-.3,1.07-.94Z"/>
  <path d="M86.95,39.14c-.5.08-.99.12-1.37.12-1.02,0-1.54-.35-1.54-1.34v-4.8h-2.16v4.97c0,2.31,1.69,3.01,3.6,3.01.79,0,2.31-.17,3.6-.4v-7.58h-2.14v6.01Z"/>
  <path d="M98.76,32.8c-1.12,0-2.04.32-2.59,1.04-.47-.77-1.34-1.04-2.33-1.04-.7,0-2.09.15-3.4.4h-.02v7.68h2.16v-6.04c.45-.07.82-.12,1.17-.12.85,0,1.39.35,1.39,1.34v4.82h2.14v-4.82c0-.82.25-1.34,1.29-1.34s1.29.52,1.29,1.34v4.82h2.16v-5.07c0-2.21-1.24-3.01-3.25-3.01Z"/>
  <path d="M116.87,33.18v-.02c0-1.79-1.02-3.26-3.88-3.26h-4.77v10.98h2.11v-4.3h2.21l2.56,4.3h2.26l-2.73-4.52c1.57-.47,2.24-1.69,2.24-3.18ZM112.87,34.92h-2.56v-3.06h2.56c1.12,0,1.84.37,1.84,1.47v.03c0,1.17-.72,1.57-1.84,1.57Z"/>
  <path d="M121.42,32.8c-2.46,0-4.05,1.71-4.05,4.12v.03c0,2.46,1.69,4.15,4.3,4.15,1.52,0,2.58-.47,3.38-.97l-.94-1.66c-.57.4-1.39.74-2.34.74-1.17,0-1.94-.77-2.16-1.76h5.81v-.2c0-2.76-1.52-4.45-4-4.45ZM119.63,36.11c.2-.9.84-1.57,1.76-1.57,1.04,0,1.67.67,1.84,1.57h-3.6Z"/>
  <path d="M130.27,36.01l-.55-.15c-.94-.27-1.32-.45-1.32-.84,0-.42.45-.57,1.24-.57.67,0,1.59.15,2.29.52l.62-1.49c-.79-.42-1.99-.67-3.16-.67-2.01,0-3.16.87-3.16,2.31,0,1.29.75,2.06,2.36,2.49l.72.2c1.14.3,1.39.47,1.39.9,0,.57-.62.7-1.54.7-.77,0-1.74-.17-2.63-.57l-.57,1.57c1.09.45,2.19.67,3.4.62,2.31,0,3.46-.82,3.46-2.51,0-1.24-.82-1.99-2.56-2.49Z"/>
  <rect x="133.97" y="33.1" width="2.16" height="7.78"/>
  <path d="M136.11,31.14c0-.6-.42-.94-1.07-.94s-1.07.37-1.07.94c0,.67.5.97,1.07.94.6,0,1.07-.3,1.07-.94Z"/>
  <path d="M142.97,33c-.47-.1-.94-.2-1.47-.2-2.63,0-4.22,1.74-4.22,4.12v.02c0,2.39,1.66,4.15,4.32,4.12,1.44,0,2.41-.2,3.53-.74v-10.44h-2.16v3.11ZM142.97,38.99c-.42.12-.87.17-1.39.17-1.42,0-2.16-.97-2.16-2.21v-.02c0-1.24.75-2.21,2.16-2.21.47,0,.97.1,1.39.2v4.08Z"/>
  <path d="M150.3,32.8c-2.46,0-4.05,1.71-4.05,4.12v.03c0,2.46,1.69,4.15,4.3,4.15,1.52,0,2.58-.47,3.38-.97l-.94-1.66c-.57.4-1.39.74-2.34.74-1.17,0-1.94-.77-2.16-1.76h5.81v-.2c0-2.76-1.52-4.45-4-4.45ZM148.51,36.11c.2-.9.84-1.57,1.76-1.57,1.04,0,1.67.67,1.84,1.57h-3.6Z"/>
  <path d="M159.04,32.8c-.77,0-2.31.17-3.6.4h-.02v7.65h2.16v-6.01c.5-.07.99-.12,1.37-.12.99,0,1.54.37,1.54,1.34v4.82h2.14v-5.07c0-2.34-1.67-3.01-3.58-3.01Z"/>
  <path d="M168.11,34.59c.65,0,1.22.2,1.74.47l.84-1.59c-.74-.42-1.74-.67-2.68-.67-2.56,0-4.23,1.71-4.23,4.12v.03c0,2.43,1.69,4.12,4.23,4.12.94,0,1.96-.25,2.68-.65l-.84-1.59c-.55.27-1.09.45-1.74.45-1.37,0-2.16-.99-2.16-2.34v-.03c0-1.37.77-2.34,2.16-2.34Z"/>
  <path d="M176.64,38.77c-.4.05-.97.1-1.39.1-.99,0-1.54-.35-1.54-1.34v-4.4h-2.14v4.42c0,2.34,1.66,3.01,3.58,3.01.37,0,.9-.05,1.47-.1v.27c0,.97-.42,1.39-1.72,1.39-.72,0-1.96-.2-2.71-.57l.47,2.04c.47.22,1.57.42,2.54.42,1.91,0,3.55-.75,3.55-3.08v-7.73h-2.11v5.57Z"/>
  <path d="M46.4,12.43c.6,0,1.12-.35,1.12-1.02,0-.62-.47-1.02-1.12-1.02s-1.12.42-1.12,1.02c0,.67.52,1.02,1.12,1.02Z"/>
  <path d="M43.64,12.43c.6,0,1.12-.35,1.12-1.02,0-.62-.47-1.02-1.12-1.02s-1.12.42-1.12,1.02c0,.67.52,1.02,1.12,1.02Z"/>
  <path d="M45.03,21.94h2.58v-8.45h-2.11v.67h-.2c-2.71,0-4.5,1.56-4.5,3.9v.03c0,2.31,1.69,3.85,4.23,3.85ZM42.77,18.07c0-1.14.89-1.79,2.04-1.79h.67v3.55h-.67c-1.14,0-2.04-.65-2.04-1.74v-.03Z"/>
  <path d="M51.59,12.8c.57,0,1.12-.35,1.12-1.04,0-.62-.5-1.02-1.12-1.02s-1.14.42-1.14,1.02c0,.7.55,1.04,1.14,1.04Z"/>
  <path d="M69.06,24.25c0-.62-.47-1.02-1.12-1.02s-1.12.42-1.12,1.02c0,.7.55,1.04,1.12,1.02.6,0,1.12-.35,1.12-1.02Z"/>
  <path d="M71.82,24.25c0-.62-.47-1.02-1.12-1.02s-1.12.42-1.12,1.02c0,.7.55,1.04,1.12,1.02.6,0,1.12-.35,1.12-1.02Z"/>
  <path d="M103.97,19.83h-1.09v-.03h-2.36v.03h-.9c.03-.15.03-.3.03-.47v-.03c0-2.53-1.57-4.22-3.93-4.22h-.02c-2.34,0-3.93,1.69-3.93,4.22v.03c0,.17,0,.32.03.47h-.6v-.03h-2.36v.03h-.87c.02-.15.02-.3.02-.47v-.03c0-2.53-1.56-4.22-3.93-4.22h-.03c-2.34,0-3.93,1.69-3.93,4.22v.03c0,.17,0,.32.02.47h-.62v-.03h-9.19v-5.64h-2.11v5.64h-14.41v.03h-1.19v-5.64h-2.11v7.43c0,1.04-.5,1.39-1.17,1.39-.37,0-.67-.02-1.14-.05l.22,1.84c.35.07.75.12,1.14.12,1.89,0,2.88-.67,3.06-2.98h1.44v-.03h25.22v.03h1.61c.67.94,1.79,1.49,3.16,1.49h.03c1.37,0,2.48-.55,3.16-1.49h1.89v-.03h1.81v.03h1.62c.67.94,1.79,1.49,3.16,1.49h.02c1.37,0,2.48-.55,3.16-1.49h1.89v-.03h1.84v.03h3.48v-10.96h-2.11v8.85ZM84.07,21.35h-.03c-1.09,0-1.81-.82-1.81-2.04v-.03c0-1.24.72-2.06,1.81-2.06h.03c1.07,0,1.79.82,1.79,2.06s-.72,2.04-1.79,2.06ZM95.75,21.35h-.02c-1.09,0-1.81-.82-1.81-2.04v-.03c0-1.24.72-2.06,1.81-2.06h.02c1.07,0,1.79.82,1.79,2.06s-.72,2.04-1.79,2.06Z"/>
  <rect x="108.2" y="10.96" width="2.11" height="10.98"/>
  <path d="M119.63,12.43c.6,0,1.12-.35,1.12-1.02,0-.62-.47-1.02-1.12-1.02s-1.12.42-1.12,1.02c0,.67.52,1.02,1.12,1.02Z"/>
  <path d="M122.39,12.43c.6,0,1.12-.35,1.12-1.02,0-.62-.47-1.02-1.12-1.02s-1.12.42-1.12,1.02c0,.67.52,1.02,1.12,1.02Z"/>
  <path d="M140.13,23.43h.02c2.36,0,3.93-1.64,3.93-4.1s-1.56-4.23-3.93-4.23h-.02c-2.34,0-3.93,1.69-3.93,4.23v.02c0,.17,0,.32.02.47h-.6v-.02h-12.05v-6.31h-2.11v.65h-.2c-2.71,0-4.5,1.56-4.5,3.9v.03c0,2.31,1.69,3.85,4.22,3.85h14.36v.02h1.62c.67.94,1.79,1.49,3.16,1.49ZM138.34,19.28c0-1.24.72-2.06,1.81-2.06h.03c1.07,0,1.79.82,1.79,2.06s-.72,2.04-1.79,2.06h-.03c-1.09,0-1.81-.82-1.81-2.04v-.02ZM121.47,19.83h-.67c-1.14,0-2.04-.65-2.04-1.74v-.02c0-1.14.89-1.79,2.04-1.79h.67v3.55Z"/>
  <path d="M156.88,21.92v.03h7.93v-7.78h-2.31c-2.73,0-4.52,1.56-4.52,3.9v.03c0,.65.12,1.24.37,1.74h-1.19v-.03h-7.31v-.03h-1.56v-8.85h-2.11v10.98h10.71ZM159.96,18.07c0-1.14.87-1.79,2.04-1.79h.67v3.55h-.67c-1.17,0-2.04-.65-2.04-1.74v-.03Z"/>
  <path d="M163.91,12.85c.6,0,1.12-.35,1.12-1.02,0-.62-.47-1.02-1.12-1.02s-1.12.42-1.12,1.02c0,.67.52,1.02,1.12,1.02Z"/>
  <path d="M161.16,12.85c.6,0,1.12-.35,1.12-1.02,0-.62-.5-1.02-1.12-1.02s-1.12.42-1.12,1.02c0,.67.52,1.02,1.12,1.02Z"/>
  <rect x="168.06" y="12.08" width="2.11" height="6.88"/>
  <path d="M170.15,21.92c2.93,0,4.35-1.37,4.35-4.05v-7.93h-2.11v8.1c0,1.14-.7,1.77-1.96,1.77h-3.93l.42,2.11h3.23Z"/>
  <path d="M169.6,23.66h.65v-.9h-.6c-.94,0-1.59.5-1.59,1.47v.94h2.54v-1.02h-1.37v-.12c0-.22.15-.37.37-.37Z"/>
  <rect x="176.64" y="10.96" width="2.11" height="10.98"/>
</svg>